Coordinates

Units are S.I. units (second, meters, Newtons, ...)
If the header above contains a line with 'inDegrees', this indicates whether rotational values are in degrees (yes) or radians (no).

inDegrees=no
nColumns=21
nRows=27
DataType=double
version=3
OpenSimVersion=4.6-2026-03-31-d6972f9e6
endheader
time	/jointset/ground_pelvis/pelvis_tilt/value	/jointset/ground_pelvis/pelvis_list/value	/jointset/ground_pelvis/pelvis_rotation/value	/jointset/ground_pelvis/pelvis_tx/value	/jointset/ground_pelvis/pelvis_ty/value	/jointset/ground_pelvis/pelvis_tz/value	/jointset/hip_r/hip_flexion_r/value	/jointset/hip_r/hip_adduction_r/value	/jointset/hip_r/hip_rotation_r/value	/jointset/walker_knee_r/knee_angle_r/value	/jointset/patellofemoral_r/knee_angle_r_beta/value	/jointset/ankle_r/ankle_angle_r/value	/jointset/subtalar_r/subtalar_angle_r/value	/jointset/hip_l/hip_flexion_l/value	/jointset/hip_l/hip_adduction_l/value	/jointset/hip_l/hip_rotation_l/value	/jointset/walker_knee_l/knee_angle_l/value	/jointset/patellofemoral_l/knee_angle_l_beta/value	/jointset/ankle_l/ankle_angle_l/value	/jointset/subtalar_l/subtalar_angle_l/value
144.996	-0.02301222217624913	-0.06125695491081976	1.568161871279202	0.8588638298297966	0.9960821010852804	-1.251636169852587	-0.208788534159191	0.004113108741179572	0.08792665985034982	0.3105563504214067	0.3105563503495439	-0.1541695202682316	-0.05580171815591214	0.4695352111183068	-0.01805434830687504	0.01329427936627188	0.877841241068816	0.8778412410790256	-0.01980058429819214	-0.3993551137448206
145	-0.03089244736677754	-0.06233710164478346	1.568926287933339	0.8587811904651417	0.9985899941518807	-1.253040933223383	-0.2222094259535263	-0.005262808765480191	0.08729714109406986	0.2955363662129314	0.2955363661308694	-0.1841209859908521	-0.05280373530613349	0.4659456866714193	-0.007564560239904757	0.007203492261834217	0.8327603591289834	0.8327603590184216	-0.02036998524107598	-0.3915625726468304
145.004	-0.03841189707690389	-0.06383868868931034	1.569394063704053	0.858719180215614	1.000930104310162	-1.254442389678237	-0.2343779364338836	-0.01421640209633049	0.08691474772979105	0.2821346133186053	0.2821346132089259	-0.2128935240191228	-0.04980978765175634	0.4624443089794489	0.002356506486382747	0.0007822046124011022	0.7876405966136736	0.7876405963835038	-0.02025257507598605	-0.3805596275689269
145.008	-0.04547273963892511	-0.0657560019117234	1.569627161433197	0.8586720489435896	1.003092560653265	-1.255831359829634	-0.2452289706325233	-0.02263058121842253	0.08682791729693537	0.2705496176793601	0.2705496175221352	-0.2403626040809044	-0.04692754157336955	0.4591225763289266	0.01164026612248836	-0.005899957736539535	0.7427163666743389	0.7427163663303243	-0.01939625166298769	-0.3662872161867273
145.012	-0.05199019057065841	-0.06807260950047395	1.569682822913691	0.8586344470541881	1.00506909745374	-1.257198487246958	-0.2547111997668542	-0.03040148211022142	0.08708703759437277	0.2609745866214543	0.2609745863968437	-0.2664138840218305	-0.04424969348496027	0.4560564564740619	0.02023061561905135	-0.01277433409804552	0.6982235911186002	0.6982235906722893	-0.01777071145896409	-0.3487547968718397
145.016	-0.05789466541025032	-0.07076141097653184	1.569612176559365	0.8586015634916917	1.006853076483826	-1.258534394640112	-0.2627886897923473	-0.03744130735245102	0.08774232523987931	0.2535925607861968	0.2535925604772705	-0.2909431624480924	-0.04184942425466204	0.4533046619247219	0.0280851157299024	-0.01977251501848043	0.6543955989821317	0.6543955984511679	-0.01536929062512641	-0.3280451809357891
145.02	-0.0631332296661829	-0.0737849949632409	1.569459346853051	0.8585692136658576	1.008439477988704	-1.259829860401137	-0.2694423118892703	-0.04368039335350834	0.08884134133733086	0.2485713459547721	0.2485713455500089	-0.3138564447879832	-0.03977667625831862	0.4509074107616319	0.03517572711536201	-0.02682521835466919	0.6114590273891353	0.6114590267966169	-0.01221002096257942	-0.3043172733365475
145.024	-0.06767031971758339	-0.0770962683090787	1.569261032256085	0.8585338800429066	1.00982486482165	-1.261076010944052	-0.2746708932744731	-0.04906847822996629	0.09042628342671287	0.246058445973906	0.2460584454690472	-0.3350701538982589	-0.0380554471142661	0.4488856833514971	0.04148906225924226	-0.03386095866823075	0.5696299169125963	0.56962991628551	-0.008335790942109877	-0.277806445521702
145.028	-0.07148775271675335	-0.08063931284710076	1.569046495565373	0.8584927107819016	1.011007324664972	-1.262264522862618	-0.2784920641888343	-0.0535751950098506	0.09253119818880175	0.2461762375756698	0.2461762369748913	-0.354511480431943	-0.03668226923803564	0.447240976688842	0.04702614662204653	-0.04080474083445883	0.5291101882547848	0.5291101876216053	-0.003813524639214805	-0.2488223446788148
145.032	-0.07458408835125083	-0.08435041151070019	1.56883789560839	0.8584434843904846	1.011986396658687	-1.263387827372886	-0.2809427682168036	-0.05718986160605749	0.09517926084552647	0.2490176336266447	0.2490176329431727	-0.3721188424869911	-0.0356260052710335	0.4459555398281196	0.05180171624004293	-0.04757703195303545	0.4900846695257897	0.490084668913589	0.001267667764654174	-0.2177440323125797
145.036	-0.07697344137292095	-0.08815917192064524	1.568650881560002	0.8583845498727275	1.012762989980524	-1.264439307158608	-0.2820794107373248	-0.05992067430547393	0.09838027949699629	0.2546424878705602	0.2546424871268774	-0.3878424197784094	-0.03482902819869715	0.4449930616943576	0.0558431069737397	-0.05409327550760321	0.4527188260930284	0.4527188255246865	0.006799351072921699	-0.1850124449041313
145.04	-0.0786838585488145	-0.09198968799221263	1.568495370545409	0.8583147521017908	1.013339300420589	-1.265413473625117	-0.2819776044847058	-0.06179342393155562	0.1021286038641507	0.2630749874261443	0.263074986653839	-0.4016447350266751	-0.03420977214818417	0.4442998006116992	0.05918880360422067	-0.06026418274411756	0.4171573286011468	0.4171573280932472	0.01265756021500432	-0.1511202877551423
145.044	-0.07975535842982609	-0.09576171001955359	1.568376433823547	0.8582333531343571	1.01371872767921	-1.266306112541757	-0.2807314590147645	-0.06284983206916915	0.1064016343001363	0.2743022219003621	0.2743022211394398	-0.4135012681953946	-0.03366656359801445	0.4438061756293438	0.0618866975145248	-0.0659969846727128	0.3835235757253619	0.3835235752870857	0.01870745316194152	-0.116599538565048
145.048	-0.08023771001132469	-0.0993918087455563	1.568295225455969	0.8581399616445842	1.013905793901333	-1.267114388110856	-0.2784523838934548	-0.06314557229396901	0.1111591118342504	0.2882740192896243	0.2882740185869244	-0.4234011078442497	-0.03308259961526207	0.4434288435704868	0.06399207193448415	-0.07119777508824798	0.3519202582318776	0.3519202578648876	0.02480879348220846	-0.08200674001377586
145.052	-0.08018804936502978	-0.102794545498223	1.568249898891957	0.8580344797089239	1.013906061265002	-1.267836897541011	-0.2752673749168924	-0.06274806085282292	0.1163432775079832	0.3049040713644999	0.3049040707709608	-0.4313476361355705	-0.03233190070802078	0.4430732839199499	0.065565374115933	-0.07577495972216834	0.3224309721434799	0.3224309718425496	0.03082215952092135	-0.04790644879127606
145.056	-0.07966850295709356	-0.1058837233056953	1.568236469238225	0.8579170668317916	1.013726041829612	-1.268473669040577	-0.2713166932869062	-0.06173418019559388	0.1218798422159906	0.324072355536168	0.3240723551030249	-0.4373591832491823	-0.03128598390181848	0.4426369289664369	0.06666995850365932	-0.07964359538840976	0.2951227440795021	0.2951227438335712	0.03661551491058055	-0.01485370418686043
145.06	-0.07874401915226424	-0.1085738271557218	1.568249590390767	0.8577881128705727	1.013373090512306	-1.269026097361459	-0.2667508298354338	-0.06018814077692401	0.1276796277552245	0.345628821840486	0.3456288216148304	-0.4414695257047317	-0.02982089785424204	0.4420128619715814	0.06737006252306801	-0.08273017941645033	0.270049204481657	0.2700492042750916	0.04207058704191424	0.01662324476512928
145.064	-0.07748055900493001	-0.1107817111043611	1.56828322654164	0.8576482119377412	1.012855275056793	-1.269496814605581	-0.2617267434887085	-0.05819963126607743	0.1336407672599275	0.3693982125392011	0.3693982125595794	-0.4437281138996788	-0.02782421227165453	0.4410940296910432	0.06772921413397025	-0.08497740068211666	0.2472541160132036	0.2472541158272211	0.04708859626890567	0.04603884761868715
145.068	-0.07594372504079587	-0.1124285055522074	1.568331207143527	0.8574981345434396	1.012181222617351	-1.269889499122359	-0.2564034996191617	-0.05586232351526393	0.1396513936427501	0.3951857695312196	0.395185769824004	-0.4441999935000399	-0.0252015897792945	0.439777818287821	0.06780915879703991	-0.08634842864581821	0.2267749867076126	0.2267749865219358	0.05159506869108112	0.07296403898039872
145.072	-0.0741978643823885	-0.1134416658804783	1.568387662855152	0.857338798151224	1.011359947331771	-1.270208630143637	-0.2509375184822893	-0.05327275187326524	0.1455927387442737	0.4227835116058643	0.4227835121829175	-0.4429654737442558	-0.02188264504803944	0.4379707742016664	0.06766933126324648	-0.08683035623749036	0.2086465012013931	0.2086465009961243	0.05554353286628062	0.09703733213742581
145.076	-0.0723056500434904	-0.1137570767342169	1.568447346689318	0.8571712370194705	1.010400664531736	-1.270459200652455	-0.2454776632917465	-0.05052955754062792	0.1513425332570196	0.4519767357613917	0.4519767366191625	-0.4401196260217508	-0.01782585326443186	0.4355932346040406	0.06736685749442733	-0.08643647366939179	0.1929035072916851	0.1929035070492019	0.05891792832341813	0.1179727920239841
145.08	-0.07032810669027387	-0.113321160223529	1.568505849341377	0.8569965725569665	1.009312593885509	-1.270646405674064	-0.2401603567170026	-0.04773306047289726	0.1567785556945523	0.4825504172895633	0.4825504184094192	-0.4357716275410506	-0.01302227361767145	0.4325836762060944	0.06695702049943404	-0.08520721925689324	0.1795833381929199	0.1795833378995018	0.06173365412089865	0.1355647410358834
145.084	-0.06832501245643545	-0.1120929797515505	1.568559720682695	0.8568159852223542	1.008104749580676	-1.270775325334472	-0.2351048488791194	-0.04498509802613503	0.161782157187904	0.5142952384742615	0.5142952398237819	-0.4300438535665716	-0.007497831786966222	0.4289026619696766	0.06649407633061268	-0.0832098406989233	0.1687273245857392	0.16872732423271	0.06403730199985436	0.1496893587203397
145.088	-0.06635557483513645	-0.1100463282062549	1.568606511164637	0.8566306883963251	1.00678571711394	-1.270850621236612	-0.2304087440090157	-0.04238904248158376	0.1662416176675455	0.547013020065513	0.5470130216005713	-0.4230705834782723	-0.001313944678553031	0.4245362817168377	0.06603227597593704	-0.08053686385625954	0.1603814036800421	0.1603814032643732	0.06590515522771923	0.1603034743995272
145.092	-0.06447925164634465	-0.1071717326042675	1.568644747801537	0.8564419042636451	1.005363424015751	-1.270876263445291	-0.2261439451508712	-0.04004988193074227	0.1700552423258483	0.5805213419307962	0.5805213435983123	-0.414996261273548	0.00543358001609768	0.419498921424071	0.06562694027869086	-0.07730342272509512	0.1545957348806595	0.1545957344050964	0.06744049183589598	0.1674408217165192
145.096	-0.06275657630783579	-0.1034782353164413	1.568673859468227	0.8562508418649739	1.003844921176323	-1.270855304752962	-0.2223532485087246	-0.03807423229386463	0.1731341489646604	0.6146571434619689	0.614657145203128	-0.4059733852219083	0.01261722471793307	0.4138351140562777	0.06533544355773653	-0.07364347622058585	0.1514232214319867	0.1514232209047191	0.06876969245404239	0.1712059910588893
145.1	-0.0612498514518908	-0.09899478247688809	1.568694065403825	0.8560586769092607	1.002236195629284	-1.270789716940732	-0.2190478292694719	-0.03657015369186646	0.1754047129586265	0.6492791402774426	0.6492791420310833	-0.3961601731176185	0.02008175997588892	0.4076202134898612	0.06521798194067691	-0.06970498262907721	0.1509168731751002	0.1509168726088755	0.07003717311244718	0.171766347611541
